<?xml version="1.0" encoding="UTF-8"?>
<svg xmlns="http://www.w3.org/2000/svg" xmlns:xlink="http://www.w3.org/1999/xlink" width="50pt" height="50pt" viewBox="0 0 50 50" version="1.1">
<g id="surface1">
<path style=" stroke:none;fill-rule:evenodd;fill:rgb(34.901961%,55.294118%,79.215686%);fill-opacity:1;" d="M 28.484375 16.628906 C 26.527344 17.339844 25.292969 19.175781 25.433594 21.183594 L 25.480469 21.957031 L 24.699219 21.863281 C 21.851562 21.5 19.367188 20.265625 17.253906 18.195312 L 16.222656 17.167969 L 15.957031 17.925781 C 15.394531 19.617188 15.753906 21.402344 16.925781 22.605469 C 17.550781 23.269531 17.410156 23.363281 16.332031 22.96875 C 15.957031 22.84375 15.628906 22.746094 15.597656 22.792969 C 15.488281 22.90625 15.863281 24.34375 16.160156 24.914062 C 16.566406 25.703125 17.394531 26.476562 18.304688 26.9375 L 19.070312 27.300781 L 18.164062 27.316406 C 17.289062 27.316406 17.257812 27.332031 17.351562 27.664062 C 17.664062 28.691406 18.898438 29.785156 20.273438 30.257812 L 21.242188 30.589844 L 20.398438 31.09375 C 19.148438 31.824219 17.679688 32.234375 16.207031 32.265625 C 15.503906 32.28125 14.925781 32.34375 14.925781 32.390625 C 14.925781 32.550781 16.832031 33.433594 17.941406 33.78125 C 21.273438 34.808594 25.230469 34.367188 28.203125 32.613281 C 30.3125 31.363281 32.421875 28.882812 33.410156 26.476562 C 33.941406 25.199219 34.472656 22.859375 34.472656 21.734375 C 34.472656 21.007812 34.519531 20.914062 35.394531 20.042969 C 35.910156 19.539062 36.394531 18.984375 36.488281 18.828125 C 36.644531 18.527344 36.628906 18.527344 35.832031 18.792969 C 34.503906 19.269531 34.316406 19.207031 34.972656 18.496094 C 35.457031 17.988281 36.035156 17.070312 36.035156 16.804688 C 36.035156 16.757812 35.800781 16.835938 35.535156 16.976562 C 35.253906 17.136719 34.628906 17.371094 34.160156 17.515625 L 33.316406 17.785156 L 32.550781 17.261719 C 32.125 16.976562 31.535156 16.660156 31.21875 16.566406 C 30.421875 16.34375 29.203125 16.375 28.484375 16.628906 Z M 25.375 47.761719 C 13.007812 47.761719 2.984375 37.738281 2.984375 25.375 C 2.984375 13.007812 13.007812 2.984375 25.375 2.984375 C 37.738281 2.984375 47.761719 13.007812 47.761719 25.375 C 47.761719 37.738281 37.738281 47.761719 25.375 47.761719 Z M 25.375 47.761719 "/>
</g>
</svg>
