<?xml version="1.0" encoding="UTF-8"?>
<svg xmlns="http://www.w3.org/2000/svg" xmlns:xlink="http://www.w3.org/1999/xlink" width="50pt" height="50pt" viewBox="0 0 50 50" version="1.1">
<g id="surface1">
<path style=" stroke:none;fill-rule:evenodd;fill:rgb(0.392157%,0.392157%,0.392157%);fill-opacity:1;" d="M 41.476562 25.171875 C 41.476562 34.175781 34.175781 41.476562 25.171875 41.476562 C 16.167969 41.476562 8.867188 34.175781 8.867188 25.171875 C 8.867188 16.167969 16.167969 8.867188 25.171875 8.867188 C 34.175781 8.867188 41.476562 16.167969 41.476562 25.171875 Z M 40.507812 25.171875 C 40.507812 33.640625 33.640625 40.507812 25.171875 40.507812 C 16.703125 40.507812 9.835938 33.640625 9.835938 25.171875 C 9.835938 16.703125 16.703125 9.835938 25.171875 9.835938 C 33.640625 9.835938 40.507812 16.703125 40.507812 25.171875 Z M 11.152344 25.171875 C 11.152344 23.097656 11.601562 21.128906 12.414062 19.355469 L 19.171875 37.84375 C 14.429688 35.597656 11.152344 30.765625 11.152344 25.171875 Z M 25.171875 39.191406 C 23.75 39.191406 22.382812 38.980469 21.09375 38.589844 L 25.414062 26.210938 L 29.867188 38.382812 C 28.398438 38.90625 26.820312 39.191406 25.171875 39.191406 Z M 39.191406 25.171875 C 39.191406 30.476562 36.246094 35.089844 31.902344 37.472656 L 36.273438 25.089844 C 36.949219 23.171875 37.578125 20.582031 37.5 18.496094 C 38.578125 20.480469 39.191406 22.753906 39.191406 25.171875 Z M 34.65625 14.851562 C 32.160156 12.554688 28.828125 11.152344 25.171875 11.152344 C 20.242188 11.152344 15.902344 13.699219 13.40625 17.550781 C 14.996094 17.53125 16.707031 17.515625 18.410156 17.421875 C 18.484375 17.417969 18.542969 17.484375 18.542969 17.5625 L 18.542969 18.402344 C 18.542969 18.480469 18.484375 18.542969 18.410156 18.542969 L 16.789062 18.542969 C 16.605469 18.542969 16.527344 18.652344 16.59375 18.839844 L 21.6875 33.839844 L 24.78125 24.484375 L 22.722656 18.851562 C 22.648438 18.648438 22.5625 18.542969 22.242188 18.542969 L 20.816406 18.542969 C 20.746094 18.542969 20.6875 18.480469 20.6875 18.402344 L 20.6875 17.5625 C 20.6875 17.484375 20.746094 17.417969 20.816406 17.421875 C 23.46875 17.542969 26.136719 17.542969 28.820312 17.421875 C 28.894531 17.417969 28.957031 17.484375 28.957031 17.5625 L 28.957031 18.402344 C 28.957031 18.480469 28.894531 18.542969 28.820312 18.542969 L 27.40625 18.542969 C 27.121094 18.542969 27.035156 18.675781 27.109375 18.902344 L 32.121094 33.664062 L 33.960938 28.066406 C 36.1875 21.289062 32.058594 20.574219 32.160156 17.207031 C 32.210938 15.542969 33.433594 14.816406 34.65625 14.851562 Z M 25.171875 47.382812 C 12.90625 47.382812 2.960938 37.4375 2.960938 25.171875 C 2.960938 12.90625 12.90625 2.960938 25.171875 2.960938 C 37.4375 2.960938 47.382812 12.90625 47.382812 25.171875 C 47.382812 37.4375 37.4375 47.382812 25.171875 47.382812 Z M 25.171875 47.382812 "/>
</g>
</svg>
