<?xml version="1.0" encoding="UTF-8"?>
<svg xmlns="http://www.w3.org/2000/svg" xmlns:xlink="http://www.w3.org/1999/xlink" width="50pt" height="50pt" viewBox="0 0 50 50" version="1.1">
<g id="surface1">
<path style=" stroke:none;fill-rule:evenodd;fill:rgb(0.392157%,0.392157%,0.392157%);fill-opacity:1;" d="M 41.808594 25.375 C 41.808594 34.449219 34.449219 41.808594 25.375 41.808594 C 16.296875 41.808594 8.9375 34.449219 8.9375 25.375 C 8.9375 16.296875 16.296875 8.9375 25.375 8.9375 C 34.449219 8.9375 41.808594 16.296875 41.808594 25.375 Z M 40.832031 25.375 C 40.832031 33.910156 33.910156 40.832031 25.375 40.832031 C 16.835938 40.832031 9.914062 33.910156 9.914062 25.375 C 9.914062 16.835938 16.835938 9.914062 25.375 9.914062 C 33.910156 9.914062 40.832031 16.835938 40.832031 25.375 Z M 11.242188 25.375 C 11.242188 23.28125 11.695312 21.296875 12.511719 19.511719 L 19.324219 38.148438 C 14.546875 35.882812 11.242188 31.011719 11.242188 25.375 Z M 25.375 39.503906 C 23.941406 39.503906 22.5625 39.292969 21.261719 38.898438 L 25.617188 26.421875 L 30.105469 38.691406 C 28.625 39.21875 27.035156 39.503906 25.375 39.503906 Z M 39.503906 25.375 C 39.503906 30.71875 36.535156 35.371094 32.15625 37.773438 L 36.5625 25.289062 C 37.246094 23.355469 37.878906 20.746094 37.800781 18.644531 C 38.886719 20.644531 39.503906 22.9375 39.503906 25.375 Z M 34.933594 14.96875 C 32.417969 12.65625 29.058594 11.242188 25.375 11.242188 C 20.402344 11.242188 16.03125 13.808594 13.511719 17.691406 C 15.117188 17.671875 16.839844 17.65625 18.558594 17.5625 C 18.632812 17.558594 18.691406 17.625 18.691406 17.703125 L 18.691406 18.550781 C 18.691406 18.628906 18.632812 18.691406 18.558594 18.691406 L 16.921875 18.691406 C 16.738281 18.691406 16.660156 18.800781 16.726562 18.992188 L 21.859375 34.109375 L 24.980469 24.679688 L 22.90625 19.003906 C 22.828125 18.796875 22.742188 18.691406 22.421875 18.691406 L 20.984375 18.691406 C 20.910156 18.691406 20.851562 18.628906 20.851562 18.550781 L 20.851562 17.703125 C 20.851562 17.625 20.910156 17.558594 20.984375 17.5625 C 23.65625 17.683594 26.347656 17.683594 29.050781 17.5625 C 29.125 17.558594 29.1875 17.625 29.1875 17.703125 L 29.1875 18.550781 C 29.1875 18.628906 29.125 18.691406 29.050781 18.691406 L 27.625 18.691406 C 27.339844 18.691406 27.25 18.824219 27.328125 19.054688 L 32.378906 33.933594 L 34.234375 28.289062 C 36.476562 21.460938 32.316406 20.738281 32.417969 17.34375 C 32.46875 15.667969 33.699219 14.933594 34.933594 14.96875 Z M 25.375 47.761719 C 13.007812 47.761719 2.984375 37.738281 2.984375 25.375 C 2.984375 13.007812 13.007812 2.984375 25.375 2.984375 C 37.738281 2.984375 47.761719 13.007812 47.761719 25.375 C 47.761719 37.738281 37.738281 47.761719 25.375 47.761719 Z M 25.375 47.761719 "/>
</g>
</svg>
