<?xml version="1.0" encoding="UTF-8"?>
<svg xmlns="http://www.w3.org/2000/svg" xmlns:xlink="http://www.w3.org/1999/xlink" width="50pt" height="50pt" viewBox="0 0 50 50" version="1.1">
<g id="surface1">
<path style=" stroke:none;fill-rule:evenodd;fill:rgb(81.176471%,20.392157%,15.294118%);fill-opacity:1;" d="M 32.484375 30.851562 C 32.273438 30.851562 32.125 30.910156 32.035156 31.03125 C 31.945312 31.148438 31.902344 31.347656 31.902344 31.625 L 31.902344 32.296875 L 33.050781 32.296875 L 33.050781 31.625 C 33.050781 31.347656 33.007812 31.148438 32.914062 31.03125 C 32.828125 30.910156 32.679688 30.851562 32.484375 30.851562 Z M 27.992188 30.828125 C 28.167969 30.828125 28.304688 30.882812 28.398438 31 C 28.488281 31.113281 28.535156 31.285156 28.535156 31.507812 L 28.535156 34.929688 C 28.535156 35.140625 28.496094 35.292969 28.421875 35.386719 C 28.347656 35.480469 28.230469 35.527344 28.070312 35.527344 C 27.960938 35.527344 27.855469 35.5 27.757812 35.453125 C 27.65625 35.410156 27.550781 35.328125 27.445312 35.222656 L 27.445312 31.09375 C 27.535156 31.003906 27.625 30.933594 27.714844 30.890625 C 27.804688 30.847656 27.898438 30.828125 27.992188 30.828125 Z M 31.902344 33.328125 L 31.902344 34.574219 C 31.902344 34.925781 31.945312 35.164062 32.027344 35.300781 C 32.117188 35.4375 32.261719 35.503906 32.46875 35.503906 C 32.6875 35.503906 32.835938 35.445312 32.921875 35.332031 C 33.007812 35.21875 33.054688 34.964844 33.054688 34.574219 L 33.054688 34.273438 L 34.390625 34.273438 L 34.390625 34.613281 C 34.390625 35.292969 34.230469 35.804688 33.902344 36.148438 C 33.578125 36.492188 33.089844 36.664062 32.441406 36.664062 C 31.859375 36.664062 31.398438 36.480469 31.0625 36.117188 C 30.726562 35.753906 30.558594 35.253906 30.558594 34.613281 L 30.558594 31.640625 C 30.558594 31.066406 30.742188 30.597656 31.113281 30.234375 C 31.480469 29.875 31.953125 29.691406 32.539062 29.691406 C 33.132812 29.691406 33.59375 29.859375 33.914062 30.195312 C 34.234375 30.53125 34.390625 31.011719 34.390625 31.640625 L 34.390625 33.328125 Z M 29.570312 36.191406 C 29.367188 36.441406 29.070312 36.5625 28.683594 36.5625 C 28.425781 36.5625 28.203125 36.519531 28.003906 36.421875 C 27.804688 36.324219 27.617188 36.175781 27.445312 35.972656 L 27.445312 36.480469 L 26.128906 36.480469 L 26.128906 27.5 L 27.445312 27.5 L 27.445312 30.394531 C 27.625 30.191406 27.808594 30.035156 28.003906 29.933594 C 28.203125 29.828125 28.402344 29.773438 28.605469 29.773438 C 29.019531 29.773438 29.332031 29.917969 29.550781 30.195312 C 29.769531 30.480469 29.875 30.894531 29.875 31.4375 L 29.875 35.113281 C 29.875 35.582031 29.773438 35.941406 29.570312 36.191406 Z M 23.847656 36.480469 L 23.847656 35.753906 C 23.605469 36.023438 23.359375 36.226562 23.097656 36.367188 C 22.835938 36.507812 22.585938 36.574219 22.339844 36.574219 C 22.039062 36.574219 21.8125 36.480469 21.660156 36.28125 C 21.507812 36.082031 21.429688 35.789062 21.429688 35.394531 L 21.429688 29.855469 L 22.730469 29.855469 L 22.730469 34.9375 C 22.730469 35.09375 22.757812 35.207031 22.8125 35.277344 C 22.871094 35.347656 22.957031 35.382812 23.078125 35.382812 C 23.175781 35.382812 23.296875 35.335938 23.441406 35.242188 C 23.589844 35.148438 23.722656 35.03125 23.847656 34.886719 L 23.847656 29.855469 L 25.148438 29.855469 L 25.148438 36.480469 Z M 19.339844 28.804688 L 19.339844 36.480469 L 17.871094 36.480469 L 17.871094 28.804688 L 16.355469 28.804688 L 16.355469 27.5 L 20.859375 27.5 L 20.859375 28.804688 Z M 25.367188 24.609375 C 25.367188 24.609375 34.382812 24.625 35.453125 25.691406 C 36.527344 26.761719 36.539062 32.046875 36.539062 32.078125 C 36.539062 32.078125 36.53125 37.386719 35.453125 38.460938 C 34.382812 39.527344 25.367188 39.550781 25.367188 39.550781 C 25.367188 39.550781 16.355469 39.527344 15.28125 38.460938 C 14.207031 37.390625 14.207031 32.117188 14.207031 32.074219 C 14.207031 32.046875 14.210938 26.761719 15.28125 25.691406 C 16.355469 24.625 25.367188 24.609375 25.367188 24.609375 Z M 32.476562 21.832031 L 31.011719 21.832031 L 31.011719 21.027344 C 30.742188 21.324219 30.460938 21.550781 30.167969 21.703125 C 29.875 21.859375 29.589844 21.9375 29.316406 21.9375 C 28.976562 21.9375 28.722656 21.828125 28.550781 21.609375 C 28.378906 21.394531 28.292969 21.070312 28.292969 20.632812 L 28.292969 14.535156 L 29.757812 14.535156 L 29.757812 20.128906 C 29.757812 20.300781 29.789062 20.425781 29.851562 20.503906 C 29.910156 20.582031 30.011719 20.621094 30.148438 20.621094 C 30.257812 20.621094 30.394531 20.570312 30.558594 20.464844 C 30.722656 20.363281 30.875 20.234375 31.007812 20.074219 L 31.007812 14.535156 L 32.476562 14.535156 Z M 24.511719 20.589844 C 24.617188 20.699219 24.765625 20.75 24.960938 20.75 C 25.160156 20.75 25.316406 20.695312 25.433594 20.585938 C 25.550781 20.472656 25.609375 20.316406 25.609375 20.125 L 25.609375 16.148438 C 25.609375 15.988281 25.550781 15.859375 25.429688 15.761719 C 25.308594 15.664062 25.152344 15.613281 24.960938 15.613281 C 24.78125 15.613281 24.636719 15.664062 24.523438 15.761719 C 24.414062 15.859375 24.355469 15.988281 24.355469 16.148438 L 24.355469 20.125 C 24.355469 20.324219 24.410156 20.476562 24.511719 20.589844 Z M 23.4375 14.851562 C 23.832031 14.519531 24.363281 14.351562 25.03125 14.351562 C 25.636719 14.351562 26.132812 14.527344 26.523438 14.878906 C 26.910156 15.234375 27.101562 15.6875 27.101562 16.246094 L 27.101562 20.015625 C 27.101562 20.636719 26.914062 21.125 26.535156 21.484375 C 26.152344 21.839844 25.628906 22.015625 24.960938 22.015625 C 24.324219 22.015625 23.808594 21.832031 23.421875 21.464844 C 23.039062 21.097656 22.847656 20.605469 22.847656 19.984375 L 22.847656 16.203125 C 22.84375 15.636719 23.042969 15.1875 23.4375 14.851562 Z M 18.851562 11.941406 L 17.1875 11.941406 L 19.15625 17.914062 L 19.15625 21.832031 L 20.804688 21.832031 L 20.804688 17.726562 L 22.726562 11.941406 L 21.046875 11.941406 L 20.027344 15.894531 L 19.925781 15.894531 Z M 25.375 47.761719 C 13.007812 47.761719 2.984375 37.738281 2.984375 25.375 C 2.984375 13.007812 13.007812 2.984375 25.375 2.984375 C 37.738281 2.984375 47.761719 13.007812 47.761719 25.375 C 47.761719 37.738281 37.738281 47.761719 25.375 47.761719 Z M 25.375 47.761719 "/>
</g>
</svg>
